<svg version="1.1" id="Layer_1" xmlns="http://www.w3.org/2000/svg" xmlns:xlink="http://www.w3.org/1999/xlink" x="0px" y="0px"
	 width="100%" viewBox="0 0 512 512" enable-background="new 0 0 512 512" xml:space="preserve">
<path fill="#5555FF" opacity="1.000000" stroke="none" 
	d="
M1.000003,476.000000 
	C1.000000,330.309265 1.000000,184.618515 1.275747,38.805031 
	C1.929490,38.360142 2.528579,38.106964 2.653684,37.705925 
	C8.140515,20.117107 19.512651,8.399009 37.169746,2.850316 
	C37.598022,2.715730 37.729885,1.637895 38.000000,1.000000 
	C183.690750,1.000000 329.381500,1.000000 475.192017,1.273168 
	C475.632721,1.925045 475.884491,2.525929 476.284576,2.650497 
	C493.879395,8.128800 505.587402,19.511019 511.147461,37.159222 
	C511.283539,37.591156 512.361389,37.726383 513.000000,38.000000 
	C513.000000,183.690750 513.000000,329.381500 512.726807,475.192017 
	C512.074951,475.632721 511.474060,475.884460 511.349487,476.284546 
	C505.871246,493.879425 494.488953,505.587372 476.840759,511.147430 
	C476.408813,511.283508 476.273560,512.361389 475.999969,513.000000 
	C330.309265,513.000000 184.618515,513.000000 38.805035,512.724243 
	C38.360149,512.070496 38.106956,511.471436 37.705910,511.346313 
	C20.117159,505.859406 8.398932,494.487396 2.850304,476.830231 
	C2.715748,476.401947 1.637899,476.270081 1.000003,476.000000 
M100.499397,371.165283 
	C106.938133,371.165283 113.376877,371.165283 119.859680,371.165283 
	C123.632393,355.545563 127.392509,340.543060 130.797791,325.460388 
	C131.594193,321.932953 133.075851,321.057098 136.499634,321.087860 
	C154.822128,321.252594 173.151886,321.402893 191.467773,321.017914 
	C196.838226,320.905029 198.891159,322.433868 199.995804,327.707062 
	C203.022919,342.157074 206.721237,356.466492 210.149307,370.812622 
	C234.928925,370.812622 259.293701,370.812622 283.943512,370.812622 
	C283.589355,369.465118 283.374969,368.507202 283.086548,367.572052 
	C260.392944,293.996216 237.667328,220.430222 215.078537,146.822220 
	C214.040924,143.441086 212.222229,143.109955 209.288132,143.118515 
	C181.302643,143.200195 153.316101,143.266693 125.331894,143.061005 
	C121.083069,143.029785 119.359322,144.360474 118.072220,148.373383 
	C95.623405,218.363846 73.005997,288.300232 50.434486,358.251343 
	C49.119316,362.327179 47.882355,366.428284 46.407307,371.165314 
	C64.577171,371.165314 82.038437,371.165314 100.499397,371.165283 
M464.253784,143.167282 
	C410.346130,143.167282 356.438446,143.167282 302.478210,143.167282 
	C302.478210,219.518768 302.478210,295.088837 302.478210,370.849854 
	C357.675201,370.849854 412.559174,370.849854 467.557434,370.849854 
	C467.557434,354.665222 467.557434,338.800049 467.557434,322.243469 
	C436.319977,322.243469 405.446869,322.243469 374.525024,322.243469 
	C374.525024,306.481384 374.525024,291.417328 374.525024,275.847961 
	C400.944031,275.847961 427.009277,275.847961 453.083069,275.847961 
	C453.083069,261.296082 453.083069,247.257446 453.083069,232.660706 
	C426.593750,232.660706 400.533295,232.660706 374.605225,232.660706 
	C374.605225,218.536728 374.605225,204.983459 374.605225,190.943878 
	C405.952911,190.943878 436.864990,190.943878 468.154266,190.943878 
	C468.154266,175.650711 468.209625,160.849121 468.027557,146.050476 
	C468.015656,145.080185 466.186859,144.132233 464.253784,143.167282 
z"/>
<path fill="#000000" opacity="1.000000" stroke="none" 
	d="
M37.531342,1.000000 
	C37.729885,1.637895 37.598022,2.715730 37.169746,2.850316 
	C19.512651,8.399009 8.140515,20.117107 2.653684,37.705925 
	C2.528579,38.106964 1.929490,38.360142 1.275747,38.341148 
	C1.000000,25.740049 1.000000,13.480098 1.000000,1.000000 
	C13.020000,1.000000 25.041342,1.000000 37.531342,1.000000 
z"/>
<path fill="#000000" opacity="1.000000" stroke="none" 
	d="
M513.000000,37.531342 
	C512.361389,37.726383 511.283539,37.591156 511.147461,37.159222 
	C505.587402,19.511019 493.879395,8.128800 476.284576,2.650497 
	C475.884491,2.525929 475.632721,1.925045 475.655884,1.273168 
	C488.259949,1.000000 500.519897,1.000000 513.000000,1.000000 
	C513.000000,13.020000 513.000000,25.041342 513.000000,37.531342 
z"/>
<path fill="#000000" opacity="1.000000" stroke="none" 
	d="
M1.000003,476.468658 
	C1.637899,476.270081 2.715748,476.401947 2.850304,476.830231 
	C8.398932,494.487396 20.117159,505.859406 37.705910,511.346313 
	C38.106956,511.471436 38.360149,512.070496 38.341148,512.724243 
	C25.740049,513.000000 13.480098,513.000000 1.000000,513.000000 
	C1.000000,500.980011 1.000000,488.958649 1.000003,476.468658 
z"/>
<path fill="#000000" opacity="1.000000" stroke="none" 
	d="
M476.468628,513.000000 
	C476.273560,512.361389 476.408813,511.283508 476.840759,511.147430 
	C494.488953,505.587372 505.871246,493.879425 511.349487,476.284546 
	C511.474060,475.884460 512.074951,475.632721 512.726807,475.655884 
	C513.000000,488.259949 513.000000,500.519897 513.000000,513.000000 
	C500.980011,513.000000 488.958649,513.000000 476.468628,513.000000 
z"/>
<path fill="#FEFEFF" opacity="1.000000" stroke="none" 
	d="
M99.999550,371.165283 
	C82.038437,371.165314 64.577171,371.165314 46.407307,371.165314 
	C47.882355,366.428284 49.119316,362.327179 50.434486,358.251343 
	C73.005997,288.300232 95.623405,218.363846 118.072220,148.373383 
	C119.359322,144.360474 121.083069,143.029785 125.331894,143.061005 
	C153.316101,143.266693 181.302643,143.200195 209.288132,143.118515 
	C212.222229,143.109955 214.040924,143.441086 215.078537,146.822220 
	C237.667328,220.430222 260.392944,293.996216 283.086548,367.572052 
	C283.374969,368.507202 283.589355,369.465118 283.943512,370.812622 
	C259.293701,370.812622 234.928925,370.812622 210.149307,370.812622 
	C206.721237,356.466492 203.022919,342.157074 199.995804,327.707062 
	C198.891159,322.433868 196.838226,320.905029 191.467773,321.017914 
	C173.151886,321.402893 154.822128,321.252594 136.499634,321.087860 
	C133.075851,321.057098 131.594193,321.932953 130.797791,325.460388 
	C127.392509,340.543060 123.632393,355.545563 119.859680,371.165283 
	C113.376877,371.165283 106.938133,371.165283 99.999550,371.165283 
M145.087830,262.579651 
	C143.834793,267.207306 142.581757,271.834961 141.260483,276.714600 
	C157.111313,276.714600 172.537094,276.714600 188.707077,276.714600 
	C181.166412,248.471710 173.731125,220.623474 166.295837,192.775253 
	C165.755432,192.812759 165.215027,192.850266 164.674622,192.887756 
	C158.213150,215.855743 151.751678,238.823715 145.087830,262.579651 
z"/>
<path fill="#FEFEFF" opacity="1.000000" stroke="none" 
	d="
M464.728455,143.170593 
	C466.186859,144.132233 468.015656,145.080185 468.027557,146.050476 
	C468.209625,160.849121 468.154266,175.650711 468.154266,190.943878 
	C436.864990,190.943878 405.952911,190.943878 374.605225,190.943878 
	C374.605225,204.983459 374.605225,218.536728 374.605225,232.660706 
	C400.533295,232.660706 426.593750,232.660706 453.083069,232.660706 
	C453.083069,247.257446 453.083069,261.296082 453.083069,275.847961 
	C427.009277,275.847961 400.944031,275.847961 374.525024,275.847961 
	C374.525024,291.417328 374.525024,306.481384 374.525024,322.243469 
	C405.446869,322.243469 436.319977,322.243469 467.557434,322.243469 
	C467.557434,338.800049 467.557434,354.665222 467.557434,370.849854 
	C412.559174,370.849854 357.675201,370.849854 302.478210,370.849854 
	C302.478210,295.088837 302.478210,219.518768 302.478210,143.167282 
	C356.438446,143.167282 410.346130,143.167282 464.728455,143.170593 
z"/>
<path fill="#5757FF" opacity="1.000000" stroke="none" 
	d="
M145.189026,262.185669 
	C151.751678,238.823715 158.213150,215.855743 164.674622,192.887756 
	C165.215027,192.850266 165.755432,192.812759 166.295837,192.775253 
	C173.731125,220.623474 181.166412,248.471710 188.707077,276.714600 
	C172.537094,276.714600 157.111313,276.714600 141.260483,276.714600 
	C142.581757,271.834961 143.834793,267.207306 145.189026,262.185669 
z"/>
</svg>